<mxfile host="app.diagrams.net" agent="Mozilla/5.0 (Macintosh; Intel Mac OS X 10_15_7) AppleWebKit/537.36 (KHTML, like Gecko) Chrome/116.0.0.0 Safari/537.36" version="24.7.7">
  <diagram id="C5RBs43oDa-KdzZeNtuy" name="Page-1">
    <mxGraphModel dx="3974" dy="1998" grid="1" gridSize="10" guides="1" tooltips="1" connect="1" arrows="1" fold="1" page="1" pageScale="1" pageWidth="827" pageHeight="1169" math="0" shadow="0">
      <root>
        <mxCell id="WIyWlLk6GJQsqaUBKTNV-0" />
        <mxCell id="WIyWlLk6GJQsqaUBKTNV-1" parent="WIyWlLk6GJQsqaUBKTNV-0" />
        <mxCell id="qxe3Rvk0tDnrJfnU4pzb-0" value="ANTON THE CREATOR" style="shape=umlActor;verticalLabelPosition=bottom;verticalAlign=top;html=1;outlineConnect=0;" vertex="1" parent="WIyWlLk6GJQsqaUBKTNV-1">
          <mxGeometry x="320" y="230" width="30" height="60" as="geometry" />
        </mxCell>
        <mxCell id="qxe3Rvk0tDnrJfnU4pzb-4" value="Socials" style="rounded=1;whiteSpace=wrap;html=1;" vertex="1" parent="WIyWlLk6GJQsqaUBKTNV-1">
          <mxGeometry x="-80" y="90" width="120" height="60" as="geometry" />
        </mxCell>
        <mxCell id="qxe3Rvk0tDnrJfnU4pzb-5" value="Telegram" style="rounded=1;whiteSpace=wrap;html=1;" vertex="1" parent="WIyWlLk6GJQsqaUBKTNV-1">
          <mxGeometry x="-190" y="-20" width="120" height="60" as="geometry" />
        </mxCell>
        <mxCell id="qxe3Rvk0tDnrJfnU4pzb-6" value="FaceBook" style="rounded=1;whiteSpace=wrap;html=1;" vertex="1" parent="WIyWlLk6GJQsqaUBKTNV-1">
          <mxGeometry x="-50" y="-120" width="120" height="60" as="geometry" />
        </mxCell>
        <mxCell id="qxe3Rvk0tDnrJfnU4pzb-7" value="LinkedIn" style="rounded=1;whiteSpace=wrap;html=1;" vertex="1" parent="WIyWlLk6GJQsqaUBKTNV-1">
          <mxGeometry x="-190" y="-120" width="120" height="60" as="geometry" />
        </mxCell>
        <mxCell id="qxe3Rvk0tDnrJfnU4pzb-8" value="Telegram" style="rounded=1;whiteSpace=wrap;html=1;" vertex="1" parent="WIyWlLk6GJQsqaUBKTNV-1">
          <mxGeometry x="-330" y="-120" width="120" height="60" as="geometry" />
        </mxCell>
        <mxCell id="qxe3Rvk0tDnrJfnU4pzb-9" value="Telegram" style="rounded=1;whiteSpace=wrap;html=1;" vertex="1" parent="WIyWlLk6GJQsqaUBKTNV-1">
          <mxGeometry x="120" y="90" width="120" height="60" as="geometry" />
        </mxCell>
        <mxCell id="qxe3Rvk0tDnrJfnU4pzb-10" value="Projects" style="rounded=1;whiteSpace=wrap;html=1;" vertex="1" parent="WIyWlLk6GJQsqaUBKTNV-1">
          <mxGeometry x="40" y="320" width="120" height="60" as="geometry" />
        </mxCell>
        <mxCell id="qxe3Rvk0tDnrJfnU4pzb-11" value="Fragrance Store" style="rounded=1;whiteSpace=wrap;html=1;" vertex="1" parent="WIyWlLk6GJQsqaUBKTNV-1">
          <mxGeometry x="-260" y="300" width="120" height="60" as="geometry" />
        </mxCell>
        <mxCell id="qxe3Rvk0tDnrJfnU4pzb-12" value="Product School" style="rounded=1;whiteSpace=wrap;html=1;" vertex="1" parent="WIyWlLk6GJQsqaUBKTNV-1">
          <mxGeometry x="-250" y="620" width="120" height="60" as="geometry" />
        </mxCell>
        <mxCell id="qxe3Rvk0tDnrJfnU4pzb-13" value="Business School" style="rounded=1;whiteSpace=wrap;html=1;" vertex="1" parent="WIyWlLk6GJQsqaUBKTNV-1">
          <mxGeometry x="-250" y="710" width="120" height="60" as="geometry" />
        </mxCell>
        <mxCell id="qxe3Rvk0tDnrJfnU4pzb-14" value="Stratosphera Capital" style="rounded=1;whiteSpace=wrap;html=1;" vertex="1" parent="WIyWlLk6GJQsqaUBKTNV-1">
          <mxGeometry x="-250" y="810" width="120" height="60" as="geometry" />
        </mxCell>
        <mxCell id="qxe3Rvk0tDnrJfnU4pzb-15" value="Tender" style="rounded=1;whiteSpace=wrap;html=1;" vertex="1" parent="WIyWlLk6GJQsqaUBKTNV-1">
          <mxGeometry x="-250" y="900" width="120" height="60" as="geometry" />
        </mxCell>
        <mxCell id="qxe3Rvk0tDnrJfnU4pzb-16" value="TG info Channel" style="rounded=1;whiteSpace=wrap;html=1;" vertex="1" parent="WIyWlLk6GJQsqaUBKTNV-1">
          <mxGeometry x="-520" y="260" width="120" height="60" as="geometry" />
        </mxCell>
        <mxCell id="qxe3Rvk0tDnrJfnU4pzb-17" value="TG Buy Bot" style="rounded=1;whiteSpace=wrap;html=1;" vertex="1" parent="WIyWlLk6GJQsqaUBKTNV-1">
          <mxGeometry x="-520" y="401" width="120" height="60" as="geometry" />
        </mxCell>
        <mxCell id="qxe3Rvk0tDnrJfnU4pzb-18" value="Product AI Agency" style="rounded=1;whiteSpace=wrap;html=1;" vertex="1" parent="WIyWlLk6GJQsqaUBKTNV-1">
          <mxGeometry x="-250" y="540" width="120" height="60" as="geometry" />
        </mxCell>
        <mxCell id="qxe3Rvk0tDnrJfnU4pzb-19" value="SubStack" style="rounded=1;whiteSpace=wrap;html=1;" vertex="1" parent="WIyWlLk6GJQsqaUBKTNV-1">
          <mxGeometry x="-473" y="-120" width="120" height="60" as="geometry" />
        </mxCell>
        <mxCell id="qxe3Rvk0tDnrJfnU4pzb-20" value="" style="rounded=1;whiteSpace=wrap;html=1;" vertex="1" parent="WIyWlLk6GJQsqaUBKTNV-1">
          <mxGeometry x="-250" y="1000" width="120" height="60" as="geometry" />
        </mxCell>
        <mxCell id="qxe3Rvk0tDnrJfnU4pzb-21" value="Dzen" style="rounded=1;whiteSpace=wrap;html=1;" vertex="1" parent="WIyWlLk6GJQsqaUBKTNV-1">
          <mxGeometry x="-750" y="190" width="120" height="60" as="geometry" />
        </mxCell>
        <mxCell id="qxe3Rvk0tDnrJfnU4pzb-22" value="Pikabu" style="rounded=1;whiteSpace=wrap;html=1;" vertex="1" parent="WIyWlLk6GJQsqaUBKTNV-1">
          <mxGeometry x="-750" y="280" width="120" height="60" as="geometry" />
        </mxCell>
        <mxCell id="qxe3Rvk0tDnrJfnU4pzb-23" value="VK" style="rounded=1;whiteSpace=wrap;html=1;" vertex="1" parent="WIyWlLk6GJQsqaUBKTNV-1">
          <mxGeometry x="-750" y="380" width="120" height="60" as="geometry" />
        </mxCell>
        <mxCell id="qxe3Rvk0tDnrJfnU4pzb-24" value="Fragrance news" style="rounded=1;whiteSpace=wrap;html=1;" vertex="1" parent="WIyWlLk6GJQsqaUBKTNV-1">
          <mxGeometry x="-1070" y="170" width="120" height="60" as="geometry" />
        </mxCell>
        <mxCell id="qxe3Rvk0tDnrJfnU4pzb-25" value="Fragrance History?" style="rounded=1;whiteSpace=wrap;html=1;" vertex="1" parent="WIyWlLk6GJQsqaUBKTNV-1">
          <mxGeometry x="-1070" y="260" width="120" height="60" as="geometry" />
        </mxCell>
        <mxCell id="qxe3Rvk0tDnrJfnU4pzb-26" value="Tired of lux" style="rounded=1;whiteSpace=wrap;html=1;" vertex="1" parent="WIyWlLk6GJQsqaUBKTNV-1">
          <mxGeometry x="-1070" y="350" width="120" height="60" as="geometry" />
        </mxCell>
        <mxCell id="qxe3Rvk0tDnrJfnU4pzb-27" value="Fragrance Online Store" style="rounded=1;whiteSpace=wrap;html=1;" vertex="1" parent="WIyWlLk6GJQsqaUBKTNV-1">
          <mxGeometry x="-520" y="470" width="120" height="60" as="geometry" />
        </mxCell>
        <mxCell id="qxe3Rvk0tDnrJfnU4pzb-28" value="VK online store" style="rounded=1;whiteSpace=wrap;html=1;" vertex="1" parent="WIyWlLk6GJQsqaUBKTNV-1">
          <mxGeometry x="-520" y="540" width="120" height="60" as="geometry" />
        </mxCell>
        <mxCell id="qxe3Rvk0tDnrJfnU4pzb-29" value="RSS Youtube Videos Repourposing" style="rounded=1;whiteSpace=wrap;html=1;" vertex="1" parent="WIyWlLk6GJQsqaUBKTNV-1">
          <mxGeometry x="-1450" y="110" width="120" height="60" as="geometry" />
        </mxCell>
        <mxCell id="qxe3Rvk0tDnrJfnU4pzb-30" value="RSS Fragrance News Sites" style="rounded=1;whiteSpace=wrap;html=1;" vertex="1" parent="WIyWlLk6GJQsqaUBKTNV-1">
          <mxGeometry x="-1450" y="200" width="120" height="60" as="geometry" />
        </mxCell>
        <mxCell id="qxe3Rvk0tDnrJfnU4pzb-31" value="RSS Fragrance Official Sites" style="rounded=1;whiteSpace=wrap;html=1;" vertex="1" parent="WIyWlLk6GJQsqaUBKTNV-1">
          <mxGeometry x="-1450" y="290" width="120" height="60" as="geometry" />
        </mxCell>
        <mxCell id="qxe3Rvk0tDnrJfnU4pzb-32" value="Discoverer" style="rounded=1;whiteSpace=wrap;html=1;" vertex="1" parent="WIyWlLk6GJQsqaUBKTNV-1">
          <mxGeometry x="-1070" y="430" width="120" height="60" as="geometry" />
        </mxCell>
        <mxCell id="qxe3Rvk0tDnrJfnU4pzb-33" value="Fragrance for not FragNerds" style="rounded=1;whiteSpace=wrap;html=1;" vertex="1" parent="WIyWlLk6GJQsqaUBKTNV-1">
          <mxGeometry x="-1070" y="520" width="120" height="60" as="geometry" />
        </mxCell>
        <mxCell id="qxe3Rvk0tDnrJfnU4pzb-34" value="Rankings and Ratings" style="rounded=1;whiteSpace=wrap;html=1;" vertex="1" parent="WIyWlLk6GJQsqaUBKTNV-1">
          <mxGeometry x="-1070" y="620" width="120" height="60" as="geometry" />
        </mxCell>
        <mxCell id="qxe3Rvk0tDnrJfnU4pzb-35" value="Top 5" style="rounded=1;whiteSpace=wrap;html=1;" vertex="1" parent="WIyWlLk6GJQsqaUBKTNV-1">
          <mxGeometry x="-910" y="620" width="120" height="60" as="geometry" />
        </mxCell>
        <mxCell id="qxe3Rvk0tDnrJfnU4pzb-36" value="Top 10" style="rounded=1;whiteSpace=wrap;html=1;" vertex="1" parent="WIyWlLk6GJQsqaUBKTNV-1">
          <mxGeometry x="-910" y="700" width="120" height="60" as="geometry" />
        </mxCell>
        <mxCell id="qxe3Rvk0tDnrJfnU4pzb-37" value="Comparison" style="rounded=1;whiteSpace=wrap;html=1;" vertex="1" parent="WIyWlLk6GJQsqaUBKTNV-1">
          <mxGeometry x="-910" y="770" width="120" height="60" as="geometry" />
        </mxCell>
        <mxCell id="qxe3Rvk0tDnrJfnU4pzb-38" value="Ranking (Tiers)" style="rounded=1;whiteSpace=wrap;html=1;" vertex="1" parent="WIyWlLk6GJQsqaUBKTNV-1">
          <mxGeometry x="-910" y="840" width="120" height="60" as="geometry" />
        </mxCell>
        <mxCell id="qxe3Rvk0tDnrJfnU4pzb-39" value="PsyOp" style="rounded=1;whiteSpace=wrap;html=1;" vertex="1" parent="WIyWlLk6GJQsqaUBKTNV-1">
          <mxGeometry x="-1070" y="1250" width="120" height="60" as="geometry" />
        </mxCell>
        <mxCell id="qxe3Rvk0tDnrJfnU4pzb-40" value="Fragrance as a Status" style="rounded=1;whiteSpace=wrap;html=1;" vertex="1" parent="WIyWlLk6GJQsqaUBKTNV-1">
          <mxGeometry x="-910" y="1090" width="120" height="60" as="geometry" />
        </mxCell>
        <mxCell id="qxe3Rvk0tDnrJfnU4pzb-41" value="Fragrance as a Spiritual Experience" style="rounded=1;whiteSpace=wrap;html=1;" vertex="1" parent="WIyWlLk6GJQsqaUBKTNV-1">
          <mxGeometry x="-910" y="1170" width="120" height="60" as="geometry" />
        </mxCell>
        <mxCell id="qxe3Rvk0tDnrJfnU4pzb-42" value="Fragrance as a Defence" style="rounded=1;whiteSpace=wrap;html=1;" vertex="1" parent="WIyWlLk6GJQsqaUBKTNV-1">
          <mxGeometry x="-910" y="1250" width="120" height="60" as="geometry" />
        </mxCell>
        <mxCell id="qxe3Rvk0tDnrJfnU4pzb-43" value="Fragrance as a Companion" style="rounded=1;whiteSpace=wrap;html=1;" vertex="1" parent="WIyWlLk6GJQsqaUBKTNV-1">
          <mxGeometry x="-910" y="1340" width="120" height="60" as="geometry" />
        </mxCell>
        <mxCell id="qxe3Rvk0tDnrJfnU4pzb-44" value="Astrology" style="rounded=1;whiteSpace=wrap;html=1;" vertex="1" parent="WIyWlLk6GJQsqaUBKTNV-1">
          <mxGeometry x="-760" y="1140" width="120" height="60" as="geometry" />
        </mxCell>
        <mxCell id="qxe3Rvk0tDnrJfnU4pzb-45" value="Fragrance as a Psy Enchancer" style="rounded=1;whiteSpace=wrap;html=1;" vertex="1" parent="WIyWlLk6GJQsqaUBKTNV-1">
          <mxGeometry x="-910" y="1420" width="120" height="60" as="geometry" />
        </mxCell>
        <mxCell id="qxe3Rvk0tDnrJfnU4pzb-46" value="Rating" style="rounded=1;whiteSpace=wrap;html=1;" vertex="1" parent="WIyWlLk6GJQsqaUBKTNV-1">
          <mxGeometry x="-910" y="910" width="120" height="60" as="geometry" />
        </mxCell>
        <mxCell id="qxe3Rvk0tDnrJfnU4pzb-47" value="Upcoming" style="rounded=1;whiteSpace=wrap;html=1;" vertex="1" parent="WIyWlLk6GJQsqaUBKTNV-1">
          <mxGeometry x="-1270" y="130" width="120" height="60" as="geometry" />
        </mxCell>
        <mxCell id="qxe3Rvk0tDnrJfnU4pzb-48" value="Freshly released" style="rounded=1;whiteSpace=wrap;html=1;" vertex="1" parent="WIyWlLk6GJQsqaUBKTNV-1">
          <mxGeometry x="-1270" y="220" width="120" height="60" as="geometry" />
        </mxCell>
        <mxCell id="qxe3Rvk0tDnrJfnU4pzb-49" value="Lux Alternatives" style="rounded=1;whiteSpace=wrap;html=1;" vertex="1" parent="WIyWlLk6GJQsqaUBKTNV-1">
          <mxGeometry x="-930" y="320" width="120" height="60" as="geometry" />
        </mxCell>
        <mxCell id="qxe3Rvk0tDnrJfnU4pzb-50" value="Expand your Collection" style="rounded=1;whiteSpace=wrap;html=1;" vertex="1" parent="WIyWlLk6GJQsqaUBKTNV-1">
          <mxGeometry x="-930" y="390" width="120" height="60" as="geometry" />
        </mxCell>
        <mxCell id="qxe3Rvk0tDnrJfnU4pzb-51" value="Psycho" style="rounded=1;whiteSpace=wrap;html=1;" vertex="1" parent="WIyWlLk6GJQsqaUBKTNV-1">
          <mxGeometry x="-760" y="1220" width="120" height="60" as="geometry" />
        </mxCell>
        <mxCell id="qxe3Rvk0tDnrJfnU4pzb-54" value="Astro Signs" style="rounded=1;whiteSpace=wrap;html=1;" vertex="1" parent="WIyWlLk6GJQsqaUBKTNV-1">
          <mxGeometry x="-614" y="1140" width="120" height="60" as="geometry" />
        </mxCell>
        <mxCell id="qxe3Rvk0tDnrJfnU4pzb-55" value="Psychotypes" style="rounded=1;whiteSpace=wrap;html=1;" vertex="1" parent="WIyWlLk6GJQsqaUBKTNV-1">
          <mxGeometry x="-614" y="1220" width="120" height="60" as="geometry" />
        </mxCell>
        <mxCell id="qxe3Rvk0tDnrJfnU4pzb-56" value="Gamification" style="rounded=1;whiteSpace=wrap;html=1;" vertex="1" parent="WIyWlLk6GJQsqaUBKTNV-1">
          <mxGeometry x="-480" y="1140" width="120" height="60" as="geometry" />
        </mxCell>
        <mxCell id="qxe3Rvk0tDnrJfnU4pzb-57" value="Gamification - psychotype test" style="rounded=1;whiteSpace=wrap;html=1;" vertex="1" parent="WIyWlLk6GJQsqaUBKTNV-1">
          <mxGeometry x="-480" y="1220" width="120" height="60" as="geometry" />
        </mxCell>
        <mxCell id="qxe3Rvk0tDnrJfnU4pzb-58" value="Medium" style="rounded=1;whiteSpace=wrap;html=1;" vertex="1" parent="WIyWlLk6GJQsqaUBKTNV-1">
          <mxGeometry x="-614" y="-120" width="120" height="60" as="geometry" />
        </mxCell>
        <mxCell id="qxe3Rvk0tDnrJfnU4pzb-59" value="VC.ru" style="rounded=1;whiteSpace=wrap;html=1;" vertex="1" parent="WIyWlLk6GJQsqaUBKTNV-1">
          <mxGeometry x="-760" y="-120" width="120" height="60" as="geometry" />
        </mxCell>
        <mxCell id="qxe3Rvk0tDnrJfnU4pzb-60" value="Habr.ru" style="rounded=1;whiteSpace=wrap;html=1;" vertex="1" parent="WIyWlLk6GJQsqaUBKTNV-1">
          <mxGeometry x="-900" y="-120" width="120" height="60" as="geometry" />
        </mxCell>
        <mxCell id="qxe3Rvk0tDnrJfnU4pzb-61" value="X.com" style="rounded=1;whiteSpace=wrap;html=1;" vertex="1" parent="WIyWlLk6GJQsqaUBKTNV-1">
          <mxGeometry x="100" y="-120" width="120" height="60" as="geometry" />
        </mxCell>
        <mxCell id="qxe3Rvk0tDnrJfnU4pzb-62" value="Dzen" style="rounded=1;whiteSpace=wrap;html=1;" vertex="1" parent="WIyWlLk6GJQsqaUBKTNV-1">
          <mxGeometry x="-1040" y="-120" width="120" height="60" as="geometry" />
        </mxCell>
        <mxCell id="qxe3Rvk0tDnrJfnU4pzb-63" value="Newsletter" style="rounded=1;whiteSpace=wrap;html=1;" vertex="1" parent="WIyWlLk6GJQsqaUBKTNV-1">
          <mxGeometry x="-1180" y="-120" width="120" height="60" as="geometry" />
        </mxCell>
        <mxCell id="qxe3Rvk0tDnrJfnU4pzb-64" value="VK.ru" style="rounded=1;whiteSpace=wrap;html=1;" vertex="1" parent="WIyWlLk6GJQsqaUBKTNV-1">
          <mxGeometry x="-1330" y="-120" width="120" height="60" as="geometry" />
        </mxCell>
        <mxCell id="qxe3Rvk0tDnrJfnU4pzb-65" value="Farcaster" style="rounded=1;whiteSpace=wrap;html=1;" vertex="1" parent="WIyWlLk6GJQsqaUBKTNV-1">
          <mxGeometry x="240" y="-120" width="120" height="60" as="geometry" />
        </mxCell>
        <mxCell id="qxe3Rvk0tDnrJfnU4pzb-66" value="TG online Store - ucoz TG bot" style="rounded=1;whiteSpace=wrap;html=1;" vertex="1" parent="WIyWlLk6GJQsqaUBKTNV-1">
          <mxGeometry x="-520" y="330" width="120" height="60" as="geometry" />
        </mxCell>
        <mxCell id="qxe3Rvk0tDnrJfnU4pzb-67" value="Free mini course" style="rounded=1;whiteSpace=wrap;html=1;" vertex="1" parent="WIyWlLk6GJQsqaUBKTNV-1">
          <mxGeometry x="-110" y="620" width="120" height="60" as="geometry" />
        </mxCell>
        <mxCell id="qxe3Rvk0tDnrJfnU4pzb-68" value="Paid course" style="rounded=1;whiteSpace=wrap;html=1;" vertex="1" parent="WIyWlLk6GJQsqaUBKTNV-1">
          <mxGeometry x="40" y="620" width="120" height="60" as="geometry" />
        </mxCell>
        <mxCell id="qxe3Rvk0tDnrJfnU4pzb-69" value="Websites to create" style="rounded=1;whiteSpace=wrap;html=1;" vertex="1" parent="WIyWlLk6GJQsqaUBKTNV-1">
          <mxGeometry x="-1940" y="-90" width="120" height="60" as="geometry" />
        </mxCell>
        <mxCell id="qxe3Rvk0tDnrJfnU4pzb-70" value="Fragrance online store - catalog - ucoz" style="rounded=1;whiteSpace=wrap;html=1;" vertex="1" parent="WIyWlLk6GJQsqaUBKTNV-1">
          <mxGeometry x="-1940" width="120" height="60" as="geometry" />
        </mxCell>
        <mxCell id="qxe3Rvk0tDnrJfnU4pzb-71" value="Fragrance store - real (wordpress - yes, tilda is shit)" style="rounded=1;whiteSpace=wrap;html=1;" vertex="1" parent="WIyWlLk6GJQsqaUBKTNV-1">
          <mxGeometry x="-1940" y="70" width="120" height="60" as="geometry" />
        </mxCell>
        <mxCell id="qxe3Rvk0tDnrJfnU4pzb-72" value="Personal site" style="rounded=1;whiteSpace=wrap;html=1;" vertex="1" parent="WIyWlLk6GJQsqaUBKTNV-1">
          <mxGeometry x="-1940" y="140" width="120" height="60" as="geometry" />
        </mxCell>
        <mxCell id="qxe3Rvk0tDnrJfnU4pzb-73" value="Blogger" style="rounded=1;whiteSpace=wrap;html=1;" vertex="1" parent="WIyWlLk6GJQsqaUBKTNV-1">
          <mxGeometry x="-1480" y="-120" width="120" height="60" as="geometry" />
        </mxCell>
        <mxCell id="qxe3Rvk0tDnrJfnU4pzb-74" value="Stratosphera Capital" style="rounded=1;whiteSpace=wrap;html=1;" vertex="1" parent="WIyWlLk6GJQsqaUBKTNV-1">
          <mxGeometry x="-1940" y="210" width="120" height="60" as="geometry" />
        </mxCell>
        <mxCell id="qxe3Rvk0tDnrJfnU4pzb-75" value="Tender Site" style="rounded=1;whiteSpace=wrap;html=1;" vertex="1" parent="WIyWlLk6GJQsqaUBKTNV-1">
          <mxGeometry x="-1940" y="280" width="120" height="60" as="geometry" />
        </mxCell>
        <mxCell id="qxe3Rvk0tDnrJfnU4pzb-76" value="Social post" style="rounded=1;whiteSpace=wrap;html=1;" vertex="1" parent="WIyWlLk6GJQsqaUBKTNV-1">
          <mxGeometry x="-2370" y="-260" width="120" height="60" as="geometry" />
        </mxCell>
        <mxCell id="qxe3Rvk0tDnrJfnU4pzb-77" value="subscribe - social" style="rounded=1;whiteSpace=wrap;html=1;" vertex="1" parent="WIyWlLk6GJQsqaUBKTNV-1">
          <mxGeometry x="-2370" y="-180" width="120" height="60" as="geometry" />
        </mxCell>
        <mxCell id="qxe3Rvk0tDnrJfnU4pzb-78" value="linktree" style="rounded=1;whiteSpace=wrap;html=1;" vertex="1" parent="WIyWlLk6GJQsqaUBKTNV-1">
          <mxGeometry x="-2370" y="-100" width="120" height="60" as="geometry" />
        </mxCell>
        <mxCell id="qxe3Rvk0tDnrJfnU4pzb-79" value="" style="rounded=1;whiteSpace=wrap;html=1;" vertex="1" parent="WIyWlLk6GJQsqaUBKTNV-1">
          <mxGeometry x="-2370" y="-20" width="120" height="60" as="geometry" />
        </mxCell>
      </root>
    </mxGraphModel>
  </diagram>
</mxfile>
